<svg width="761" height="346" viewBox="0 0 761 346" fill="none" xmlns="http://www.w3.org/2000/svg">
<path d="M366.494 187H389.58V161.772H399.694L416.469 187H443.125L423.252 157.964C433.605 153.564 440.388 145.112 440.388 132.379V132.141C440.388 123.93 437.888 117.504 433.01 112.741C427.417 107.029 418.61 103.697 405.878 103.697H366.494V187ZM389.58 143.684V123.692H404.693C412.428 123.692 417.193 127.024 417.193 133.569V133.807C417.193 139.876 412.671 143.684 404.817 143.684H389.58ZM473.113 187H496.318V155.465L527.972 103.7H502.149L484.894 134.045L467.758 103.7H441.458L473.112 155.822L473.113 187ZM563.673 188.428C583.903 188.428 597.35 178.313 597.35 161.296V161.058C597.35 145.469 585.45 139.281 566.291 135.116C554.748 132.5 551.894 130.832 551.894 127.024V126.786C551.894 123.811 554.631 121.431 560.224 121.431C567.602 121.431 575.932 124.287 583.548 129.642L595.091 113.342C586.045 106.08 574.978 102.272 560.817 102.272C540.825 102.272 528.568 113.458 528.568 128.928V129.166C528.568 146.302 542.253 151.3 559.984 155.346C571.289 157.964 574.026 159.868 574.026 163.319V163.557C574.026 167.127 570.694 169.269 564.506 169.269C554.867 169.269 545.706 165.818 537.493 159.269L524.64 174.624C534.875 183.787 548.917 188.428 563.673 188.428ZM626.505 187H649.594V123.93H674.584V103.7H601.515V123.93H626.505V187ZM684.694 187H707.78V155.346H737.411V187H760.494V103.7H737.413V134.878H707.782V103.7H684.694V187Z" fill="url(#paint0_linear_207_14)"/>
<path d="M381.735 248.448C387.643 248.448 392.164 246.98 395.297 244.043C398.269 241.268 399.755 237.303 399.755 232.146C399.755 226.972 398.269 222.998 395.297 220.223C393.113 218.182 390.212 216.839 386.596 216.194C384.716 215.854 383.096 215.738 381.735 215.845H369.677V248.448H381.735ZM387.724 213.401C391.537 214.153 394.715 215.72 397.257 218.101C400.856 221.449 402.655 226.131 402.655 232.146C402.655 238.162 400.856 242.844 397.257 246.192C394.715 248.555 391.439 250.122 387.428 250.892C385.316 251.303 383.373 251.456 381.601 251.348H366.857L366.884 212.918H371.96L381.601 212.945C384.107 212.945 386.148 213.097 387.724 213.401Z" fill="url(#paint1_linear_207_14)"/>
<path d="M434.962 237.598V240.418H412.995V237.598H434.962ZM435.07 212.837V215.711H408.564V248.528H435.07V251.375H405.636V212.837H435.07Z" fill="url(#paint2_linear_207_14)"/>
<path d="M451.881 224.627C453.582 224.627 455.238 224.94 456.85 225.567C459.499 226.569 461.63 228.226 463.241 230.535C464.924 232.881 465.766 235.485 465.766 238.35C465.766 242.128 464.405 245.341 461.684 247.991C458.962 250.677 455.695 252.02 451.881 252.02C448.086 252.02 444.845 250.704 442.16 248.072C439.456 245.458 438.078 242.289 438.024 238.565H440.79C440.862 241.519 441.972 244.034 444.12 246.111C446.287 248.206 448.874 249.253 451.881 249.253C454.943 249.253 457.557 248.179 459.723 246.031C461.89 243.9 462.973 241.34 462.973 238.35C462.973 235.324 461.89 232.746 459.723 230.616C457.557 228.467 454.943 227.393 451.881 227.393C449.984 227.393 448.319 226.784 446.886 225.567C446.689 225.388 446.555 225.262 446.483 225.191C444.98 223.705 444.228 221.915 444.228 219.82C444.228 217.707 444.98 215.908 446.483 214.422C447.969 212.936 449.769 212.193 451.881 212.193C453.994 212.193 455.802 212.936 457.306 214.422C458.792 215.908 459.535 217.707 459.535 219.82H456.769C456.769 218.477 456.286 217.331 455.319 216.382C454.37 215.433 453.224 214.959 451.881 214.959C450.539 214.959 449.393 215.433 448.444 216.382C447.495 217.331 447.021 218.477 447.021 219.82C447.021 221.127 447.495 222.255 448.444 223.204C449.393 224.152 450.539 224.627 451.881 224.627Z" fill="url(#paint3_linear_207_14)"/>
<path d="M471.566 212.864V251.375H468.747V212.864H471.566Z" fill="url(#paint4_linear_207_14)"/>
<path d="M487.814 237.84H513.649C512.342 241.958 509.952 245.332 506.479 247.964C502.916 250.65 498.932 251.993 494.528 251.993C489.014 251.993 484.305 250.041 480.402 246.138C476.499 242.235 474.547 237.527 474.547 232.012C474.547 226.498 476.499 221.789 480.402 217.886C484.305 213.983 489.014 212.032 494.528 212.032C499.147 212.032 503.265 213.455 506.881 216.302C510.444 219.113 512.781 222.702 513.891 227.071H510.722C509.648 223.562 507.633 220.697 504.679 218.477C501.689 216.221 498.306 215.093 494.528 215.093C489.855 215.093 485.872 216.74 482.577 220.035C479.265 223.347 477.609 227.339 477.609 232.012C477.609 236.685 479.265 240.669 482.577 243.963C485.872 247.275 489.855 248.931 494.528 248.931C497.5 248.931 500.293 248.17 502.907 246.648C505.413 245.18 507.436 243.211 508.976 240.74H487.814V237.84Z" fill="url(#paint5_linear_207_14)"/>
<path d="M548.857 212.891H551.676V251.375H551.65L519.692 219.686V251.375H516.872V212.891L519.692 215.711L548.857 244.634V212.891Z" fill="url(#paint6_linear_207_14)"/>
<path d="M190.14 96.189L129.261 35.31L48.777 115.794H0V201.894H84.606V201.394L84.774 201.562L190.14 96.189Z" fill="url(#paint7_linear_207_14)"/>
<path d="M103.929 60.879L164.808 0L280.608 115.8H329.381V201.9H244.781V201.4L244.613 201.568L103.929 60.879Z" fill="url(#paint8_linear_207_14)"/>
<path d="M147.757 281.1L188.269 321.612L241.827 268.054L201.216 227.642L147.757 281.1Z" fill="url(#paint9_linear_207_14)"/>
<path d="M205.126 304.6L164.615 345.112L87.558 268.054L133.722 227.642L205.126 304.6Z" fill="url(#paint10_linear_207_14)"/>
<defs>
<linearGradient id="paint0_linear_207_14" x1="0" y1="0" x2="760" y2="345" gradientUnits="userSpaceOnUse">
<stop stop-color="#3739A8"/>
<stop offset="1" stop-color="#2A299E"/>
</linearGradient>
<linearGradient id="paint1_linear_207_14" x1="0" y1="0" x2="760" y2="345" gradientUnits="userSpaceOnUse">
<stop stop-color="#3739A8"/>
<stop offset="1" stop-color="#2A299E"/>
</linearGradient>
<linearGradient id="paint2_linear_207_14" x1="0" y1="0" x2="760" y2="345" gradientUnits="userSpaceOnUse">
<stop stop-color="#3739A8"/>
<stop offset="1" stop-color="#2A299E"/>
</linearGradient>
<linearGradient id="paint3_linear_207_14" x1="0" y1="0" x2="760" y2="345" gradientUnits="userSpaceOnUse">
<stop stop-color="#3739A8"/>
<stop offset="1" stop-color="#2A299E"/>
</linearGradient>
<linearGradient id="paint4_linear_207_14" x1="0" y1="0" x2="760" y2="345" gradientUnits="userSpaceOnUse">
<stop stop-color="#3739A8"/>
<stop offset="1" stop-color="#2A299E"/>
</linearGradient>
<linearGradient id="paint5_linear_207_14" x1="0" y1="0" x2="760" y2="345" gradientUnits="userSpaceOnUse">
<stop stop-color="#3739A8"/>
<stop offset="1" stop-color="#2A299E"/>
</linearGradient>
<linearGradient id="paint6_linear_207_14" x1="0" y1="0" x2="760" y2="345" gradientUnits="userSpaceOnUse">
<stop stop-color="#3739A8"/>
<stop offset="1" stop-color="#2A299E"/>
</linearGradient>
<linearGradient id="paint7_linear_207_14" x1="0" y1="0" x2="760" y2="345" gradientUnits="userSpaceOnUse">
<stop stop-color="#3739A8"/>
<stop offset="1" stop-color="#2A299E"/>
</linearGradient>
<linearGradient id="paint8_linear_207_14" x1="0" y1="0" x2="760" y2="345" gradientUnits="userSpaceOnUse">
<stop stop-color="#3739A8"/>
<stop offset="1" stop-color="#2A299E"/>
</linearGradient>
<linearGradient id="paint9_linear_207_14" x1="0" y1="0" x2="760" y2="345" gradientUnits="userSpaceOnUse">
<stop stop-color="#3739A8"/>
<stop offset="1" stop-color="#2A299E"/>
</linearGradient>
<linearGradient id="paint10_linear_207_14" x1="0" y1="0" x2="760" y2="345" gradientUnits="userSpaceOnUse">
<stop stop-color="#3739A8"/>
<stop offset="1" stop-color="#2A299E"/>
</linearGradient>
</defs>
</svg>
